<?xml version="1.0" standalone="no"?><!DOCTYPE svg PUBLIC "-//W3C//DTD SVG 1.1//EN" "http://www.w3.org/Graphics/SVG/1.1/DTD/svg11.dtd"><svg t="1772255231677" class="icon" viewBox="0 0 1024 1024" version="1.1" xmlns="http://www.w3.org/2000/svg" p-id="15163" xmlns:xlink="http://www.w3.org/1999/xlink" width="128" height="128"><path d="M584.192 783.36m-240.64 0a240.64 240.64 0 1 0 481.28 0 240.64 240.64 0 1 0-481.28 0Z" fill="#DE5C4D" opacity=".14" p-id="15164"></path><path d="M227.328 312.832v-28.672H142.336c-47.616 0-85.504 38.4-85.504 85.504v284.16c0 47.616 38.4 85.504 85.504 85.504h85.504V312.832z m57.344 415.232l227.328 182.272V113.664L284.672 295.936v432.128z m-57.344-45.568v56.832l254.464 211.968c47.616 39.936 87.04 21.504 87.04-40.96V113.664c0-62.464-38.912-80.896-87.04-40.96L227.328 284.672v56.832H170.496c-31.744 0-56.832 25.088-56.832 56.32v228.352c0 30.72 25.6 56.32 56.832 56.32h56.832z m455.168-384l241.152-241.152 40.448 40.448-241.152 241.152-40.448-40.448z m0 424.448l241.152 241.152 40.448-40.448-241.152-241.152-40.448 40.448z m0-267.776h284.672V512h-284.672V455.168z" fill="#DE5C4D" p-id="15165"></path></svg>