<?xml version="1.0" standalone="no"?><!DOCTYPE svg PUBLIC "-//W3C//DTD SVG 1.1//EN" "http://www.w3.org/Graphics/SVG/1.1/DTD/svg11.dtd"><svg t="1774405187099" class="icon" viewBox="0 0 1024 1024" version="1.1" xmlns="http://www.w3.org/2000/svg" p-id="25396" width="128" height="128" xmlns:xlink="http://www.w3.org/1999/xlink"><path d="M0 0m0 0l1024 0q0 0 0 0l0 1024q0 0 0 0l-1024 0q0 0 0 0l0-1024q0 0 0 0Z" fill="#FFFFFF" p-id="25397"></path><path d="M511.784 673.42l481.063-261.434v492.798c0 33.786-25.21 61.23-56.156 61.23H86.877c-31.054 0-56.157-27.444-56.157-61.23V411.876L511.784 673.42z" fill="#3173E7" p-id="25398"></path><path d="M511.784 61.44L30.72 379.293v4.81L512 657.238l481.28-273.133v-4.811L511.784 61.44z" fill="#3173E7" p-id="25399"></path><path d="M207.63 122.015h608.958V857.33H207.63V122.015z" fill="#F99403" p-id="25400"></path><path d="M161.211 173.624h701.903v735.424H161.21V173.624z" fill="#FCCA4C" p-id="25401"></path><path d="M116.524 224.466H906.07v679.115H116.524V224.466z" fill="#E7F5FD" p-id="25402"></path><path d="M763.243 525.81h-504.11c-4.328 0-7.79-3.5-7.79-7.873v-1.75c0-4.373 3.462-7.872 7.79-7.872h504.002c4.328 0 7.79 3.499 7.79 7.872v1.75a7.642 7.642 0 0 1-7.682 7.872z m0.758 71.29H259.999c-4.328 0-7.79-3.5-7.79-7.873v-1.75c0-4.373 3.462-7.872 7.79-7.872H764c4.328 0 7.79 3.499 7.79 7.873v1.749c0 4.374-3.462 7.872-7.79 7.872z" fill="#5EADEF" p-id="25403"></path><path d="M511.784 640.835l481.063-261.433V872.2c0 33.786-25.21 61.23-56.156 61.23H86.877c-31.054 0-56.157-27.444-56.157-61.23V379.292l481.064 261.543z" fill="#5EADEF" p-id="25404"></path><path d="M763.243 454.957h-504.11c-4.328 0-7.79-3.499-7.79-7.873v-1.75c0-4.373 3.462-7.872 7.79-7.872h504.002c4.328 0 7.79 3.5 7.79 7.873v1.75c0.109 4.264-3.353 7.872-7.682 7.872z" fill="#5EADEF" p-id="25405"></path><path d="M993.28 872.2V379.292L512.216 640.835 937.123 933.43c31.054-0.109 56.157-27.444 56.157-61.23z m-962.56 0V379.292L512 640.835 86.877 933.321c-31.054 0-56.157-27.335-56.157-61.121z" fill="#76B9F1" p-id="25406"></path><path d="M673.112 377.762H349.914c-10.17 0-18.394-8.31-18.394-18.588v-38.269c0-10.278 8.223-18.588 18.394-18.588h323.198c10.17 0 18.394 8.31 18.394 18.588v38.27c0 10.277-8.223 18.587-18.394 18.587z" fill="#5EADEF" p-id="25407"></path><path d="M933.77 411.658V872.31c0 33.786-25.212 61.23-56.157 61.23h59.186c31.054 0 56.156-27.444 56.156-61.23V379.402l-59.186 32.256z" fill="#A0CEF6" p-id="25408"></path></svg>