<?xml version="1.0" standalone="no"?><!DOCTYPE svg PUBLIC "-//W3C//DTD SVG 1.1//EN" "http://www.w3.org/Graphics/SVG/1.1/DTD/svg11.dtd"><svg t="1774666272335" class="icon" viewBox="0 0 1159 1024" version="1.1" xmlns="http://www.w3.org/2000/svg" p-id="12469" width="72.4375" height="64" xmlns:xlink="http://www.w3.org/1999/xlink"><path d="M1044.622336 1020.4416H167.899136l151.04-422.144 567.808 0.1536z" fill="#CCCCCC" fill-opacity=".5" p-id="12470"></path><path d="M318.913536 598.4512H886.875136v-192.768H318.913536z" fill="#F5F5F5" p-id="12471"></path><path d="M1044.622336 1020.4416l-157.8752-421.9904v-192.768l157.8752 308.1472v306.6112z m-875.8272 0l150.1184-421.9904v-192.768L164.980736 713.856l3.8144 306.6112z" fill="#A9ADBA" fill-opacity=".13" p-id="12472"></path><path d="M789.492736 713.8304a184.4224 184.4224 0 0 1-366.464 0H164.980736l2.9184 306.6112h876.7232V713.8304h-255.1296z" fill="#F5F5F5" p-id="12473"></path><path d="M1048.155136 1024H164.340736l-3.0464-313.7024H426.075136l0.384 3.1488a180.5568 180.5568 0 0 0 179.6608 160.5376 180.6848 180.6848 0 0 0 179.8144-160.512l0.384-3.1744H1048.155136V1024z m-876.6976-7.2192h869.4784V717.3888H792.667136a187.6992 187.6992 0 0 1-186.4192 163.712 187.5968 187.5968 0 0 1-186.368-163.712H168.641536l2.7904 299.392z" fill="#A9ADBA" fill-opacity=".301" p-id="12474"></path><path d="M161.319936 710.5792l154.2656-306.4832 6.4768 3.2512L167.771136 713.8304l-6.4768-3.2512zM886.363136 406.1184l6.4512-3.2512 155.4176 307.7632-6.4512 3.2512-155.4176-307.7632z" fill="#A9ADBA" fill-opacity=".307" p-id="12475"></path><path d="M317.019136 409.3952h575.6928v-7.2448H317.019136z" fill="#CCCCCC" p-id="12476"></path><path d="M883.188736 598.3232h7.2448v-192.6144h-7.2448v192.6144z m-567.936 0h7.2192v-192.6144h-7.2192v192.6144z" fill="#CCCCCC" p-id="12477"></path><path d="M274.727936 711.8336l40.7808-114.688 6.8096 2.4064-40.7808 114.688-6.8096-2.4064z m610.1248-108.288l6.784-2.5088 41.4208 110.8224-6.7584 2.5088-41.4464-110.7968z" fill="#A9ADBA" fill-opacity=".501" p-id="12478"></path><path d="M318.913536 614.1952H886.107136v-18.0736H318.913536z" fill="#6C788C" fill-opacity=".102" p-id="12479"></path><path d="M3.931136 424.9856s38.0416 38.912 70.144 43.1104c32.0768 4.1984 46.8992 8.2432 51.0976 12.672 4.1728 4.4544 14.9504 48.2048-39.0656 47.8208 0 0-28.672-11.776-47.6672-31.3344C19.675136 477.8496 4.827136 447.4624 3.931136 441.088 3.163136 434.7392 3.931136 424.9856 3.931136 424.9856z" fill="#F5F5F5" p-id="12480"></path><path d="M87.003136 532.1472h-1.536l-0.64-0.256c-1.1264-0.512-29.5168-12.288-48.7936-32.1024C16.628736 479.8976 1.268736 448.8448 0.398336 441.6c-0.896-6.6048 0-16.4864 0-16.8704L1.012736 416.9984 6.491136 422.5792c0.3584 0.384 37.5296 38.0416 68.096 42.0864 40.2944 5.3504 49.5616 9.9072 53.248 13.696 3.1488 3.328 7.8592 18.7648 1.8944 32.4608-4.0448 9.7792-14.9504 21.3248-42.752 21.3248z m0-7.1168c18.6368 0 30.6944-5.4528 35.7632-16.1024 5.1968-10.9056 1.3824-23.7056-0.128-25.6-2.56-2.6624-13.184-6.8608-48.9472-11.5456C47.937536 468.352 19.291136 444.2624 7.233536 433.2288c0 2.56 0 5.3248 0.384 7.4752 0.768 5.7088 15.4624 35.5072 33.6128 54.144 16.7424 16.9984 41.5744 28.288 45.7728 30.208z" fill="#F5F5F5" p-id="12481"></path><path d="M864.167936 198.5024l22.7072-5.9648s6.2208 44.8-6.4768 67.584a339.328 339.328 0 0 1-28.2624 42.24s-3.84-38.912-3.4304-46.5408c0.384-7.6032 3.3024-11.008 6.8352-21.1712 3.5584-10.1376 8.6272-36.1472 8.6272-36.1472z" fill="#F4F5F7" p-id="12482"></path><path d="M849.345536 311.6288l-0.896-8.7552c-0.128-1.664-3.7888-39.168-3.4304-47.0528 0.256-5.7088 1.92-9.3696 3.8144-14.08 1.024-2.2784 2.048-4.8128 3.3024-8.1152 3.4048-9.7536 8.4992-35.5072 8.4992-35.8656l0.3584-2.304 28.8-7.4752 0.512 4.0704c0.256 1.8944 6.1952 46.2848-6.9888 69.8624a350.4384 350.4384 0 0 1-28.5184 42.752l-5.4528 6.9632z m17.8688-110.208c-1.28 6.6048-5.3248 26.0096-8.3712 34.6112a114.944 114.944 0 0 1-3.4304 8.4992c-1.8944 4.4544-3.0208 7.1168-3.2768 11.5456-0.256 4.6848 1.3824 23.5776 2.5344 36.7872 5.5808-7.6288 14.592-20.4288 22.4256-34.5088 9.9072-17.6128 7.7568-50.0736 6.6048-61.3632l-16.4864 4.4288z" fill="#F5F5F5" p-id="12483"></path><path d="M1022.939136 261.0176s101.8112-59.2128 110.08-95.488c8.2176-36.3776 7.1936-146.176 7.1936-146.176s-16.5888-14.592-18.2528-14.592c-1.6384 0-16.8704 33.1008-49.0752 45.7728 0 0-5.9648 134.4-18.6368 159.7696-12.672 25.344-31.4368 44.0064-31.4368 44.0064v6.7072h0.128z" fill="#F5F5F5" p-id="12484"></path><path d="M1019.252736 267.2384v-14.464l1.024-1.024a186.7776 186.7776 0 0 0 30.7968-42.9568c12.1856-24.3456 18.1504-156.9792 18.2784-158.3872l0.128-2.304 2.1504-0.8704c24.32-9.6256 38.4-31.1808 44.4928-40.448 2.6624-4.1984 3.584-5.5808 5.9648-5.5808 1.408 0 3.0464 0 20.5568 15.36l1.2544 0.9984V19.2c0 4.5824 1.024 110.72-7.2192 147.0976-8.4992 37.4272-107.52 95.36-111.7184 97.8944l-5.7088 3.0464z m57.1904-214.2976c-0.896 18.5088-6.7072 134.784-18.8928 158.8736a190.3616 190.3616 0 0 1-28.7744 41.344c23.7056-14.464 94.08-59.8528 100.6592-88.6272 7.5008-33.1008 7.2448-130.0992 7.1168-143.7952a293.9648 293.9648 0 0 0-13.696-11.4176l-0.768 1.152c-5.7088 8.8576-20.5312 31.6928-45.6448 42.4704z" fill="#F5F5F5" p-id="12485"></path></svg>