<?xml version="1.0" standalone="no"?><!DOCTYPE svg PUBLIC "-//W3C//DTD SVG 1.1//EN" "http://www.w3.org/Graphics/SVG/1.1/DTD/svg11.dtd"><svg t="1773370843322" class="icon" viewBox="0 0 1024 1024" version="1.1" xmlns="http://www.w3.org/2000/svg" p-id="1522" xmlns:xlink="http://www.w3.org/1999/xlink" width="64" height="64"><path d="M812 112c55.228 0 100 44.772 100 100v600c0 55.228-44.772 100-100 100H212c-55.228 0-100-44.772-100-100V212c0-55.228 44.772-100 100-100h600zM512 288c-11.046 0-20 8.954-20 20l-0.001 184H308c-11.046 0-20 8.954-20 20s8.954 20 20 20h184v184c0 11.046 8.954 20 20 20s20-8.954 20-20V532h184c11.046 0 20-8.954 20-20s-8.954-20-20-20H531.999L532 308c0-11.046-8.954-20-20-20z" fill="#222222" p-id="1523"></path></svg>