<?xml version="1.0" standalone="no"?><!DOCTYPE svg PUBLIC "-//W3C//DTD SVG 1.1//EN" "http://www.w3.org/Graphics/SVG/1.1/DTD/svg11.dtd"><svg t="1773382904402" class="icon" viewBox="0 0 1024 1024" version="1.1" xmlns="http://www.w3.org/2000/svg" p-id="24614" xmlns:xlink="http://www.w3.org/1999/xlink" width="64" height="64"><path d="M108.71 315.69h654.76q9.17 0 9.17 9.17V479.4q0 9.17-9.17 9.17H108.71q-9.17 0-9.17-9.17V324.86q0-9.17 9.17-9.17zM108.71 270.88h654.76a9.17 9.17 0 0 0 9.17-9.17V107.13a9.16 9.16 0 0 0-9.17-9.13H108.71a9.17 9.17 0 0 0-9.17 9.17v154.54a9.18 9.18 0 0 0 9.17 9.17z m603.52-112.51v52H160v-52z m207.65 344.85a9.17 9.17 0 0 0-9.15 0L692.16 628.41a9.17 9.17 0 0 0 0 15.91L910.71 770a9.24 9.24 0 0 0 4.58 1.22 9.19 9.19 0 0 0 9.17-9.18V511.15a9.17 9.17 0 0 0-4.58-7.93z m-156.41 249.9H108.71a9.17 9.17 0 0 0-9.17 9.17v154.58a9.17 9.17 0 0 0 9.17 9.17h654.76a9.16 9.16 0 0 0 9.17-9.17V762.29a9.16 9.16 0 0 0-9.17-9.17zM160 865.63v-52.1h552.23v52.1z" p-id="24615"></path></svg>