<?xml version="1.0" standalone="no"?><!DOCTYPE svg PUBLIC "-//W3C//DTD SVG 1.1//EN" "http://www.w3.org/Graphics/SVG/1.1/DTD/svg11.dtd"><svg t="1773382952231" class="icon" viewBox="0 0 1024 1024" version="1.1" xmlns="http://www.w3.org/2000/svg" p-id="26651" xmlns:xlink="http://www.w3.org/1999/xlink" width="64" height="64"><path d="M448 641.21856v125.9008H256v-192.8192h-64V831.3856h256V962.56H1024V641.20832H448z m512 257.0752H512v-192.8192h448v192.8192zM192 61.44H256v64.26624h-64V61.44z m128 0h64v64.26624h-64V61.44z m128 0H512v64.26624h-64V61.44z m128 0h64v64.26624h-64V61.44zM0 189.98272h64v-64.27648h64V61.44H0v128.54272z m64 192.80896H0v128.53248h128v-64.26624H64v-64.26624zM704 61.44v64.26624H768v64.27648h64V61.44h-128zM768 447.05792h-64v64.26624h128V382.78144H768v64.27648zM0 254.23872h64v64.27648H0V254.2592z m768 0h64v64.27648H768V254.2592z m-576 192.8192H256v64.26624h-64v-64.26624z m128 0h64v64.26624h-64v-64.26624z m128 0H512v64.26624h-64v-64.26624z m128 0h64v64.26624h-64v-64.26624z" fill="#555555" p-id="26652"></path></svg>