<?xml version="1.0" standalone="no"?><!DOCTYPE svg PUBLIC "-//W3C//DTD SVG 1.1//EN" "http://www.w3.org/Graphics/SVG/1.1/DTD/svg11.dtd"><svg t="1773382921445" class="icon" viewBox="0 0 1024 1024" version="1.1" xmlns="http://www.w3.org/2000/svg" p-id="25615" xmlns:xlink="http://www.w3.org/1999/xlink" width="64" height="64"><path d="M919.88 253.33a9.18 9.18 0 0 0-9.17 0L692.15 379a9.17 9.17 0 0 0 0 15.91l218.57 125.2a9.18 9.18 0 0 0 13.74-8V261.27a9.18 9.18 0 0 0-4.58-7.94zM763.47 753.12H108.72a9.17 9.17 0 0 0-9.18 9.17v154.58a9.17 9.17 0 0 0 9.18 9.17h654.75a9.16 9.16 0 0 0 9.17-9.17V762.29a9.16 9.16 0 0 0-9.17-9.17zM160 865.63v-52.1h552.23v52.1z m-51.28-594.75h654.75a9.17 9.17 0 0 0 9.17-9.17V107.13a9.16 9.16 0 0 0-9.17-9.13H108.72a9.17 9.17 0 0 0-9.18 9.17v154.54a9.18 9.18 0 0 0 9.18 9.17z m603.51-112.51v52H160v-52zM108.71 534.74h654.76q9.17 0 9.17 9.17v154.54q0 9.17-9.17 9.17H108.71q-9.17 0-9.17-9.17V543.91q0-9.17 9.17-9.17z" p-id="25616"></path></svg>