<?xml version="1.0" standalone="no"?><!DOCTYPE svg PUBLIC "-//W3C//DTD SVG 1.1//EN" "http://www.w3.org/Graphics/SVG/1.1/DTD/svg11.dtd"><svg t="1773382875700" class="icon" viewBox="0 0 1024 1024" version="1.1" xmlns="http://www.w3.org/2000/svg" p-id="24446" xmlns:xlink="http://www.w3.org/1999/xlink" width="64" height="64"><path d="M214.464 402.304v299.072H448V640a64 64 0 0 1 64-64h448a64 64 0 0 1 64 64v192a64 64 0 0 1-64 64H512a64 64 0 0 1-64-64v-62.08H180.224a34.304 34.304 0 0 1-34.304-34.24v-333.44H214.4zM928 640h-384a32 32 0 0 0-31.488 26.24L512 672v128a32 32 0 0 0 26.24 31.488L544 832h384a32 32 0 0 0 31.488-26.24L960 800v-128a32 32 0 0 0-32-32z" fill="#606266" p-id="24447"></path><path d="M640 128a64 64 0 0 1 64 64v192a64 64 0 0 1-64 64H64a64 64 0 0 1-64-64V192a64 64 0 0 1 64-64h576z m-32 64h-512a32 32 0 0 0-32 32v128a32 32 0 0 0 32 32h512a32 32 0 0 0 32-32v-128a32 32 0 0 0-32-32z" fill="#C0C4CC" p-id="24448"></path></svg>