<?xml version="1.0" standalone="no"?><!DOCTYPE svg PUBLIC "-//W3C//DTD SVG 1.1//EN" "http://www.w3.org/Graphics/SVG/1.1/DTD/svg11.dtd"><svg t="1773370866435" class="icon" viewBox="0 0 1024 1024" version="1.1" xmlns="http://www.w3.org/2000/svg" p-id="1862" xmlns:xlink="http://www.w3.org/1999/xlink" width="64" height="64"><path d="M812 112c55.228 0 100 44.772 100 100v600c0 55.228-44.772 100-100 100H212c-55.228 0-100-44.772-100-100V212c0-55.228 44.772-100 100-100h600z m-93.525 277.39c-11.716-11.716-30.71-11.716-42.426 0L452.603 612.836 347.951 508.184c-11.716-11.716-30.71-11.716-42.426 0-11.716 11.715-11.716 30.71 0 42.426L431.39 676.475c11.716 11.716 30.71 11.716 42.426 0l244.66-244.659c11.715-11.715 11.715-30.71 0-42.426z" fill="#222222" p-id="1863"></path></svg>