<?xml version="1.0" standalone="no"?><!DOCTYPE svg PUBLIC "-//W3C//DTD SVG 1.1//EN" "http://www.w3.org/Graphics/SVG/1.1/DTD/svg11.dtd"><svg t="1773370875725" class="icon" viewBox="0 0 1024 1024" version="1.1" xmlns="http://www.w3.org/2000/svg" p-id="2033" xmlns:xlink="http://www.w3.org/1999/xlink" width="64" height="64"><path d="M812 112c55.228 0 100 44.772 100 100v600c0 55.228-44.772 100-100 100H212c-55.228 0-100-44.772-100-100V212c0-55.228 44.772-100 100-100h600z m0 40H212c-32.806 0-59.462 26.328-59.992 59.008L152 212v600c0 32.806 26.328 59.462 59.008 59.992L212 872h600c32.806 0 59.462-26.328 59.992-59.008L872 812V212c0-32.806-26.328-59.462-59.008-59.992L812 152z" fill="#222222" p-id="2034"></path></svg>